HIERARCHY
ROOT Hips
{
	OFFSET 0.000000 0.000000 0.000000
	CHANNELS 6 Xposition Yposition Zposition Xrotation Yrotation Zrotation
	JOINT LeftUpLeg_virtual
	{
		OFFSET 0.000000 0.000000 0.000000
		CHANNELS 3 Xrotation Yrotation Zrotation
		JOINT LeftUpLeg
		{
			OFFSET 15.427100 -6.655098 0.678600
			CHANNELS 3 Xrotation Yrotation Zrotation
			JOINT LeftLeg
			{
				OFFSET 4.081073 -39.591068 13.024000
				CHANNELS 3 Xrotation Yrotation Zrotation
				JOINT LeftFoot
				{
					OFFSET -4.081074 -37.707932 -15.979700
					CHANNELS 3 Xrotation Yrotation Zrotation
					JOINT LeftToeBase
					{
						OFFSET 5.346399 -15.068900 20.645000
						CHANNELS 3 Xrotation Yrotation Zrotation
						JOINT LeftToe_End
						{
							OFFSET 2.754700 0.931300 11.300900
							CHANNELS 3 Xrotation Yrotation Zrotation
							End Site
							{
								OFFSET 0 0 0
							}
						}
					}
				}
			}
		}
	}
	JOINT RightUpLeg_virtual
	{
		OFFSET 0.000000 0.000000 0.000000
		CHANNELS 3 Xrotation Yrotation Zrotation
		JOINT RightUpLeg
		{
			OFFSET -15.569500 -6.655098 0.678600
			CHANNELS 3 Xrotation Yrotation Zrotation
			JOINT RightLeg
			{
				OFFSET -4.081825 -39.591045 13.023800
				CHANNELS 3 Xrotation Yrotation Zrotation
				JOINT RightFoot
				{
					OFFSET 4.081824 -37.707954 -15.979600
					CHANNELS 3 Xrotation Yrotation Zrotation
					JOINT RightToeBase
					{
						OFFSET -5.346400 -15.068900 20.645000
						CHANNELS 3 Xrotation Yrotation Zrotation
						JOINT RightToe_End
						{
							OFFSET -2.754700 0.931300 11.300900
							CHANNELS 3 Xrotation Yrotation Zrotation
							End Site
							{
								OFFSET 0 0 0
							}
						}
					}
				}
			}
		}
	}
	JOINT Spine_virtual
	{
		OFFSET 0.000000 0.000000 0.000000
		CHANNELS 3 Xrotation Yrotation Zrotation
		JOINT Spine
		{
			OFFSET -0.279200 12.230698 -2.892100
			CHANNELS 3 Xrotation Yrotation Zrotation
			JOINT Spine1
			{
				OFFSET -0.232667 10.192268 -1.242267
				CHANNELS 3 Xrotation Yrotation Zrotation
				JOINT Spine1_split
				{
					OFFSET -0.232667 10.192268 -1.242267
					CHANNELS 3 Xrotation Yrotation Zrotation
					JOINT Spine2
					{
						OFFSET -0.232667 10.192268 -1.242267
						CHANNELS 3 Xrotation Yrotation Zrotation
						JOINT Neck_virtual
						{
							OFFSET 0.000000 0.000000 0.000000
							CHANNELS 3 Xrotation Yrotation Zrotation
							JOINT Neck
							{
								OFFSET -0.418800 17.814194 8.416900
								CHANNELS 3 Xrotation Yrotation Zrotation
								JOINT Head
								{
									OFFSET 0.000000 7.031097 3.806800
									CHANNELS 3 Xrotation Yrotation Zrotation
									JOINT HeadTop_End
									{
										OFFSET 0.000000 24.646606 12.978600
										CHANNELS 3 Xrotation Yrotation Zrotation
										End Site
										{
											OFFSET 0 0 0
										}
									}
								}
							}
						}
						JOINT LeftShoulder_virtual
						{
							OFFSET 0.000000 0.000000 0.000000
							CHANNELS 3 Xrotation Yrotation Zrotation
							JOINT LeftShoulder
							{
								OFFSET 8.476499 7.247704 -3.868750
								CHANNELS 3 Xrotation Yrotation Zrotation
								JOINT LeftShoulder_split
								{
									OFFSET 8.476499 7.247704 -3.868750
									CHANNELS 3 Xrotation Yrotation Zrotation
									JOINT LeftArm
									{
										OFFSET 9.308998 -2.777710 0.208600
										CHANNELS 3 Xrotation Yrotation Zrotation
										JOINT LeftForeArm
										{
											OFFSET 29.972298 0.000000 0.000000
											CHANNELS 3 Xrotation Yrotation Zrotation
											JOINT LeftHand
											{
												OFFSET 26.026505 0.000000 0.000000
												CHANNELS 3 Xrotation Yrotation Zrotation
												End Site
												{
													OFFSET 0 0 0
												}
											}
										}
									}
								}
							}
						}
						JOINT RightShoulder_virtual
						{
							OFFSET 0.000000 0.000000 0.000000
							CHANNELS 3 Xrotation Yrotation Zrotation
							JOINT RightShoulder
							{
								OFFSET -7.570500 7.247704 -3.868750
								CHANNELS 3 Xrotation Yrotation Zrotation
								JOINT RightShoulder_split
								{
									OFFSET -7.570500 7.247704 -3.868750
									CHANNELS 3 Xrotation Yrotation Zrotation
									JOINT RightArm
									{
										OFFSET -9.308998 -2.777710 0.208500
										CHANNELS 3 Xrotation Yrotation Zrotation
										JOINT RightForeArm
										{
											OFFSET -29.972300 0.000000 0.000000
											CHANNELS 3 Xrotation Yrotation Zrotation
											JOINT RightHand
											{
												OFFSET -26.026505 0.000000 0.000000
												CHANNELS 3 Xrotation Yrotation Zrotation
												End Site
												{
													OFFSET 0 0 0
												}
											}
										}
									}
								}
							}
						}
					}
				}
			}
		}
	}
}
MOTION
Frames: 11
Frame Time: 0.03333333
0.204459 90.860313 -7.429415 0.000000 0.000000 0.000000 2.718431 2.246851 -0.379207 -17.289423 7.566271 8.426391 28.785904 -0.817338 0.206204 -14.214345 1.336244 -4.509764 -1.093422 -0.101723 0.744331 0.000000 0.000000 0.000000 2.883951 2.599024 -0.664939 -7.355545 -7.028850 -6.681700 21.881744 -6.859181 5.627928 -13.967390 -16.880288 1.168217 -0.657821 0.173273 -0.074516 0.000000 0.000000 0.000000 3.010637 0.568184 -1.303021 19.134942 -2.335542 -0.378925 -0.435948 -0.358687 1.200874 0.639953 0.588868 0.104441 0.000000 0.000000 0.000000 0.401371 -0.240976 0.554753 15.934823 2.162789 0.690352 11.876618 2.299084 1.814727 0.000000 0.000000 0.000000 0.252682 -0.040431 0.227832 11.108349 -38.395977 -0.496956 0.403328 -1.203949 -3.307525 16.535342 15.518277 -48.240783 -0.205350 -33.380231 0.990307 0.000000 0.000000 0.000000 -0.189257 -0.058478 0.861946 1.724362 -2.576145 6.583699 -0.754450 2.297162 -0.354709 2.478715 19.092112 36.021270 0.306739 16.663281 1.613737 0.000000 0.000000 0.000000 
0.241221 90.953423 -7.260466 0.000000 0.000000 0.000000 2.550115 2.273647 -0.289223 -16.915404 7.739462 8.383582 28.505275 -0.848051 0.122426 -14.127130 1.336397 -4.414215 -1.081126 -0.091253 0.764470 0.000000 0.000000 0.000000 2.751002 2.633428 -0.579410 -7.030431 -6.953729 -6.784876 21.708081 -6.768468 5.591547 -13.860785 -16.899654 1.164157 -0.602957 0.162725 -0.076844 0.000000 0.000000 0.000000 2.828176 0.772305 -1.186313 18.537960 -2.363926 -0.339999 -0.435304 -0.361103 1.108277 0.638537 0.592805 0.122644 0.000000 0.000000 0.000000 0.411717 -0.237833 0.453583 15.910133 1.490293 0.757293 11.845320 -0.484384 3.039579 0.000000 0.000000 0.000000 0.289906 -0.039280 0.130949 10.785638 -38.162200 -0.579039 0.374161 -1.084576 -3.130067 18.144138 16.267542 -48.546584 -0.192960 -32.855942 0.988482 0.000000 0.000000 0.000000 -0.165883 -0.055370 0.792982 1.509400 -3.010417 6.383629 -0.530206 2.360501 -0.360777 3.994356 18.706191 35.607668 0.442789 16.675272 1.495574 0.000000 0.000000 0.000000 
0.263288 91.011681 -7.149881 0.000000 0.000000 0.000000 2.387947 2.284344 -0.233400 -16.643035 7.828484 8.325400 28.314974 -0.902894 0.088549 -14.050549 1.328794 -4.333765 -1.066702 -0.078624 0.766068 0.000000 0.000000 0.000000 2.618959 2.638492 -0.522433 -6.734824 -6.850628 -6.845228 21.589895 -6.683980 5.575438 -13.793533 -16.930854 1.141205 -0.571489 0.153161 -0.071356 0.000000 0.000000 0.000000 2.660336 0.969422 -1.090046 18.014322 -2.304195 -0.318944 -0.390386 -0.356012 1.075740 0.653754 0.577606 0.124481 0.000000 0.000000 0.000000 0.406076 -0.225896 0.407613 15.855796 0.897720 0.828377 11.747552 -2.786657 4.015153 0.000000 0.000000 0.000000 0.358425 -0.035702 0.093674 10.491632 -37.749837 -0.619390 0.384368 -0.906031 -2.989793 19.261601 16.589440 -49.060282 -0.254373 -32.355839 0.980985 0.000000 0.000000 0.000000 -0.105420 -0.043735 0.775537 1.380219 -3.355658 6.298989 -0.317616 2.469039 -0.350235 4.476782 18.484705 35.950393 0.491818 16.587529 1.419972 0.000000 0.000000 0.000000 
0.275268 91.026810 -7.084795 0.000000 0.000000 0.000000 2.220353 2.300482 -0.193397 -16.467818 7.799740 8.238503 28.235883 -0.990747 0.112758 -13.959505 1.309342 -4.289574 -1.036661 -0.063895 0.745173 0.000000 0.000000 0.000000 2.467768 2.636476 -0.476713 -6.477366 -6.726841 -6.881707 21.550063 -6.620286 5.575590 -13.793366 -16.985267 1.088974 -0.557618 0.145648 -0.063699 0.000000 0.000000 0.000000 2.495196 1.154734 -0.998604 17.590428 -2.172403 -0.317955 -0.315838 -0.348147 1.096082 0.677867 0.576022 0.067322 0.000000 0.000000 0.000000 0.372553 -0.211058 0.409016 15.794046 0.405869 0.897562 11.653160 -4.575598 4.763138 0.000000 0.000000 0.000000 0.435442 -0.034728 0.101253 10.232008 -37.253317 -0.643109 0.364333 -0.634488 -2.903453 19.840631 16.517380 -49.656322 -0.435020 -31.689964 0.940562 0.000000 0.000000 0.000000 -0.024416 -0.025947 0.800651 1.345282 -3.595907 6.371628 -0.154863 2.539364 -0.297897 3.964011 18.369556 37.056805 0.472744 16.415806 1.363991 0.000000 0.000000 0.000000 
0.278402 91.009888 -7.060316 0.000000 0.000000 0.000000 2.040795 2.334365 -0.145904 -16.340191 7.649180 8.105826 28.231830 -1.106858 0.203958 -13.851534 1.288312 -4.270930 -0.980323 -0.049181 0.703038 0.000000 0.000000 0.000000 2.288510 2.663739 -0.422448 -6.250804 -6.608612 -6.923827 21.601453 -6.579723 5.586143 -13.865143 -17.072186 1.014882 -0.557949 0.140515 -0.057130 0.000000 0.000000 0.000000 2.322480 1.340224 -0.894269 17.281150 -1.983108 -0.337833 -0.226156 -0.340976 1.150785 0.695320 0.565065 -0.024868 0.000000 0.000000 0.000000 0.306250 -0.198071 0.446536 15.737722 0.028989 0.956539 11.614712 -5.878159 5.318720 0.000000 0.000000 0.000000 0.500553 -0.036123 0.134069 10.003276 -36.753548 -0.689443 0.299267 -0.334880 -2.852255 19.910688 16.032201 -50.286161 -0.717757 -30.946986 0.862854 0.000000 0.000000 0.000000 0.058164 0.001872 0.850592 1.405349 -3.665797 6.660830 -0.006476 2.578821 -0.258401 2.634170 18.296169 38.887590 0.429412 16.114225 1.300333 0.000000 0.000000 0.000000 
0.274120 90.976997 -7.063318 0.000000 0.000000 0.000000 1.848029 2.397796 -0.072279 -16.205213 7.408494 7.925356 28.222668 -1.240747 0.344784 -13.756233 1.268414 -4.259659 -0.906209 -0.036436 0.646744 0.000000 0.000000 0.000000 2.069293 2.742368 -0.341344 -6.040432 -6.534426 -6.990592 21.716098 -6.563620 5.605312 -13.977202 -17.195389 0.943598 -0.569988 0.136679 -0.052848 0.000000 0.000000 0.000000 2.120373 1.538870 -0.757069 17.074235 -1.752928 -0.366632 -0.136189 -0.336667 1.220067 0.700929 0.565671 -0.079651 0.000000 0.000000 0.000000 0.214917 -0.187532 0.506113 15.693055 -0.229502 1.002574 11.656209 -6.722978 5.699657 0.000000 0.000000 0.000000 0.540183 -0.039427 0.179994 9.795646 -36.292979 -0.804301 0.189504 -0.067276 -2.837969 19.497941 15.149220 -50.962592 -1.021977 -30.330780 0.767702 0.000000 0.000000 0.000000 0.134575 0.036531 0.914536 1.552204 -3.484790 7.161252 0.094083 2.498611 -0.235831 0.707845 18.181557 41.317327 0.405065 15.763491 1.186517 0.000000 0.000000 0.000000 
0.263560 90.942978 -7.089476 0.000000 0.000000 0.000000 1.629570 2.502526 0.032943 -16.020004 7.136798 7.715365 28.139867 -1.391449 0.499258 -13.663459 1.237028 -4.262131 -0.866417 -0.025334 0.593188 0.000000 0.000000 0.000000 1.805845 2.873621 -0.227652 -5.830844 -6.536600 -7.088923 21.855328 -6.565876 5.625710 -14.085938 -17.360282 0.900951 -0.597263 0.132257 -0.050327 0.000000 0.000000 0.000000 1.869334 1.758063 -0.584003 16.946000 -1.496124 -0.392413 -0.058101 -0.333589 1.290917 0.712883 0.555592 -0.139885 0.000000 0.000000 0.000000 0.106622 -0.178085 0.580164 15.652616 -0.375950 1.038892 11.778132 -7.175309 5.930810 0.000000 0.000000 0.000000 0.550273 -0.041732 0.232126 9.604796 -35.908015 -1.006859 0.075970 0.141907 -2.815134 18.700056 13.907092 -51.735210 -1.261708 -30.002337 0.696181 0.000000 0.000000 0.000000 0.196495 0.074950 0.986983 1.767097 -3.004553 7.831923 0.102719 2.310160 -0.273330 -1.578585 18.012785 44.191484 0.441572 15.341249 0.999134 0.000000 0.000000 0.000000 
0.249393 90.915878 -7.129683 0.000000 0.000000 0.000000 1.381087 2.633244 0.161211 -15.786138 6.876877 7.502232 27.972956 -1.562064 0.639126 -13.539045 1.194781 -4.277747 -0.878993 -0.017518 0.548926 0.000000 0.000000 0.000000 1.503700 3.065731 -0.092759 -5.607904 -6.626260 -7.205730 21.996798 -6.579072 5.649605 -14.162418 -17.561972 0.895798 -0.641575 0.127061 -0.048725 0.000000 0.000000 0.000000 1.565111 2.006881 -0.392683 16.855292 -1.225074 -0.404074 0.005092 -0.330932 1.360699 0.757061 0.520479 -0.186736 0.000000 0.000000 0.000000 -0.015028 -0.167644 0.664440 15.600485 -0.432216 1.068892 11.935529 -7.316929 6.044250 0.000000 0.000000 0.000000 0.531911 -0.041486 0.290061 9.429484 -35.589739 -1.290297 -0.045480 0.276550 -2.743805 17.559537 12.392451 -52.627478 -1.370400 -29.830551 0.667141 0.000000 0.000000 0.000000 0.239146 0.114965 1.068267 2.030697 -2.199434 8.617452 0.006090 2.082160 -0.355144 -3.977517 17.851659 47.308383 0.536261 14.830009 0.745980 0.000000 0.000000 0.000000 
0.232784 90.897881 -7.172857 0.000000 0.000000 0.000000 1.092688 2.787725 0.301054 -15.515036 6.668074 7.308975 27.758312 -1.749158 0.745981 -13.375118 1.150682 -4.281723 -0.909284 -0.012970 0.510438 0.000000 0.000000 0.000000 1.167640 3.297120 0.051601 -5.346020 -6.791743 -7.311391 22.116839 -6.605197 5.674913 -14.217491 -17.799263 0.902834 -0.681077 0.121054 -0.050302 0.000000 0.000000 0.000000 1.207453 2.282845 -0.208925 16.763437 -0.955798 -0.393303 0.053897 -0.324764 1.430853 0.799325 0.453741 -0.213226 0.000000 0.000000 0.000000 -0.141775 -0.153617 0.758489 15.526055 -0.424334 1.103110 12.092930 -7.231121 6.066177 0.000000 0.000000 0.000000 0.496791 -0.039996 0.355398 9.280023 -35.323918 -1.610290 -0.154086 0.460387 -2.596057 16.058413 10.687229 -53.658741 -1.345434 -29.574132 0.695276 0.000000 0.000000 0.000000 0.258872 0.154264 1.157860 2.315363 -1.100956 9.407882 -0.151321 1.845106 -0.421949 -6.342294 17.837795 50.502016 0.655547 14.268552 0.455992 0.000000 0.000000 0.000000 
0.208024 90.888512 -7.197203 0.000000 0.000000 0.000000 0.766083 2.955554 0.432004 -15.207514 6.520917 7.151271 27.525183 -1.945486 0.818675 -13.195971 1.118084 -4.254781 -0.918004 -0.008329 0.470883 0.000000 0.000000 0.000000 0.805087 3.558913 0.187089 -5.033703 -7.003487 -7.377528 22.209340 -6.642487 5.697561 -14.274846 -18.065671 0.899773 -0.715462 0.116525 -0.056626 0.000000 0.000000 0.000000 0.808236 2.580913 -0.056435 16.623123 -0.705364 -0.360494 0.090903 -0.313305 1.507357 0.837037 0.363068 -0.216268 0.000000 0.000000 0.000000 -0.262433 -0.134598 0.863230 15.422866 -0.377144 1.144925 12.204374 -7.022466 6.039113 0.000000 0.000000 0.000000 0.450838 -0.033876 0.434334 9.155648 -35.069722 -1.926441 -0.278715 0.606492 -2.379309 14.243441 8.826504 -54.834128 -1.233753 -29.032928 0.761932 0.000000 0.000000 0.000000 0.251602 0.187606 1.253270 2.606144 0.199768 10.129430 -0.338583 1.653031 -0.448200 -8.549256 18.116206 53.667918 0.760358 13.724305 0.179317 0.000000 0.000000 0.000000 
0.176322 90.881401 -7.195478 0.000000 0.000000 0.000000 0.412862 3.130935 0.543749 -14.871830 6.427396 7.033390 27.283170 -2.147756 0.870542 -13.046619 1.104671 -4.202879 -0.911447 -0.001385 0.432585 0.000000 0.000000 0.000000 0.427910 3.831173 0.305004 -4.671793 -7.214044 -7.392374 22.259361 -6.679365 5.717323 -14.337385 -18.347594 0.891227 -0.780548 0.115229 -0.073937 0.000000 0.000000 0.000000 0.385558 2.890069 0.057416 16.393185 -0.489700 -0.304649 0.121704 -0.297735 1.594106 0.865597 0.312491 -0.205709 0.000000 0.000000 0.000000 -0.365141 -0.113684 0.971088 15.294563 -0.314739 1.190515 12.259061 -6.751420 5.984599 0.000000 0.000000 0.000000 0.395762 -0.021478 0.529853 9.053396 -34.791802 -2.205963 -0.384950 0.721509 -2.134137 12.212847 6.833127 -56.186024 -1.086542 -28.159762 0.852503 0.000000 0.000000 0.000000 0.222996 0.212991 1.348923 2.885717 1.586121 10.722480 -0.534845 1.520499 -0.433793 -10.556265 18.793004 56.755891 0.812300 13.325525 -0.036547 0.000000 0.000000 0.000000 
